<?xml version="1.0" encoding="UTF-8"?>
<svg width="100%" height="100%" viewBox="0 0 1000 1000" version="1.1" xmlns="http://www.w3.org/2000/svg">
    <g transform="translate(100, 100) scale(0.8)">
        <path d="M500 100C350 100 250 200 250 350C250 500 350 600 500 600C650 600 750 500 750 350C750 200 650 100 500 100ZM500 200C575 200 650 250 650 350C650 450 575 500 500 500C425 500 350 450 350 350C350 250 425 200 500 200Z" 
              fill="currentColor"
              fillRule="evenodd"
              className="text-primary" />
        <path d="M400 400C300 400 200 500 200 650C200 800 300 900 450 900C600 900 700 800 700 650C700 500 600 400 400 400ZM450 500C525 500 600 550 600 650C600 750 525 800 450 800C375 800 300 750 300 650C300 550 375 500 450 500Z"
              fill="currentColor"
              fillRule="evenodd"
              className="text-primary" />
    </g>
</svg> 